<svg width="256" height="256" viewBox="0 0 256 256" fill="none" xmlns="http://www.w3.org/2000/svg">
<rect width="256" height="256" fill="#60E3D5"/>
<path d="M112.7 137.7C109.1 128.4 104.9 111.3 100.4 111.9C93.2 113.1 87.2 141.9 86.3 159.6C86 165.6 85.7 171.6 85.1 177.3C84.8 180.3 82.4 183 79.4 183.3C74.6 183.9 73.1 181.8 71.9 176.7C69.8 167.4 68.6 157.8 67.4 148.5C65.9 137.7 62.9 122.4 62.3 110.4C62.3 107.7 62.9 102.9 68 102.9C74 102.9 76.1 106.5 76.1 110.4C76.1 110.1 77 119.1 78.2 132C81.5 111 91.1 92.7 103.4 92.7C113.3 92.7 117.2 106.2 121.7 118.5C124.7 126.6 130.1 144.6 133.4 152.7C133.4 148.2 134.3 124.8 136.1 111.6C138.8 90.3 145.7 71.4 160.7 54.9C164.6 50.4 170.9 46.8 176.9 46.8C185 46.8 189.2 53.4 189.2 60.9C189.2 74.7 188.6 95.1 191.3 132C191.6 137.7 194 156 195.2 162C197 170.4 198.2 176.4 199.4 184.2C200 187.8 197.3 189.6 194.6 189.6C189.8 189.6 186.2 182.4 183.5 173.4C180.5 163.8 176.9 142.5 176 133.8C173.9 113.7 174.2 88.8 173.3 63.9C163.7 68.7 153.5 88.5 150.2 110.7C147.5 129 146 148.8 146.9 172.8C147.2 177.3 147.5 185.1 140.6 185.1C133.4 185.1 129.8 175.5 127.7 171C122.3 159.6 117.2 149.1 112.7 137.7Z" fill="white"/>
</svg>
