<svg xmlns="http://www.w3.org/2000/svg" width="64" height="64" viewBox="0 0 64 64">
  <g id="그룹_4" data-name="그룹 4" transform="translate(14066 -7032)">
    <rect id="사각형_66" data-name="사각형 66" width="64" height="64" transform="translate(-14066 7032)" fill="none"/>
    <g id="그룹_3" data-name="그룹 3" transform="translate(0 -1.854)">
      <path id="패스_1" data-name="패스 1" d="M96.954,40.163C97.47,40.8,98,41.429,98.5,42.078a4.56,4.56,0,0,1-.109,6.009,10.345,10.345,0,0,1-5.564,3.249,20.842,20.842,0,0,1-13.049-.558,11.045,11.045,0,0,1-3.1-1.838c-2.819-2.392-2.714-5.688.153-8.033.215-.176.436-.345.746-.589a5.273,5.273,0,0,0-.565-.072c-1.145-.005-2.291-.031-3.435.009-.585.02-.762-.2-.733-.753.036-.69.033-1.384,0-2.073-.025-.528.151-.727.7-.711,1.231.034,2.463.01,3.7.01H99.995c.973,0,.973,0,.974,1,0,.627-.021,1.254.006,1.879.021.473-.147.657-.632.644-.993-.026-1.988-.009-2.981-.006-.208,0-.415.018-.623.028l.215-.11m-10.2,8.215a29.083,29.083,0,0,0,3.734-.539A8.753,8.753,0,0,0,93.323,46.5a2.2,2.2,0,0,0,.064-3.623,6.188,6.188,0,0,0-2.07-1.151,13.873,13.873,0,0,0-8.044-.113,7.071,7.071,0,0,0-2.488,1.307,2.178,2.178,0,0,0-.058,3.453,4.929,4.929,0,0,0,1.864,1.116c1.442.4,2.935.633,4.168.884" transform="translate(-14104.623 7029.882)" fill="#0c4da2"/>
      <path id="패스_3" data-name="패스 3" d="M78.151,6.3c-1.029,0-1.907-.023-2.783.009-.506.018-.7-.153-.674-.668a19.889,19.889,0,0,0,0-2.138c-.036-.579.184-.737.743-.733,3.068.023,6.135.011,9.2.01.874,0,.874,0,.877-.9,0-.454.014-.908,0-1.361C85.5.13,85.678,0,86.059,0Q88.1.02,90.142,0c.393,0,.545.153.536.534-.012.518.028,1.039-.007,1.555-.037.539.17.706.7.7,3.046-.02,6.092-.01,9.138-.009,1.054,0,1.054,0,1.056,1.056,0,.583-.032,1.169.01,1.749s-.2.75-.753.725c-.861-.039-1.724-.01-2.7-.01.124.215.188.358.279.482a4.15,4.15,0,0,1-.377,5.8,8.291,8.291,0,0,1-2.453,1.759,17.764,17.764,0,0,1-15.227-.162,8.064,8.064,0,0,1-2.611-2.159,3.946,3.946,0,0,1-.069-5.039c.123-.176.248-.349.484-.682m9.865,6.352c.006-.057.013-.113.02-.17a12.944,12.944,0,0,0,1.488-.009,6.579,6.579,0,0,0,4.149-1.589,1.921,1.921,0,0,0,0-2.928,5.3,5.3,0,0,0-1.869-1.106,11.874,11.874,0,0,0-7.449.01,5.121,5.121,0,0,0-1.675.946,1.971,1.971,0,0,0,0,3.194,5.573,5.573,0,0,0,1.977,1.049,33.564,33.564,0,0,0,3.362.6" transform="translate(-14105.624 7049.854)" fill="#0c4da2"/>
      <path id="패스_5" data-name="패스 5" d="M10.638,16.3a16.8,16.8,0,0,1-7.583,6.155.841.841,0,0,1-1.2-.275C1.295,21.448.658,20.773,0,20.01c.374-.192.672-.351.976-.5a11.571,11.571,0,0,0,5.507-4.825,12.782,12.782,0,0,0,1.309-4.314c.074-.539-.092-.727-.648-.719-1.922.026-3.845,0-5.767.02-.522.006-.745-.14-.716-.691a20.878,20.878,0,0,0,0-2.137c-.026-.534.165-.719.7-.714,2.225.021,4.449.009,6.674.009,3.888,0,7.775.011,11.663-.012.626,0,.916.135.854.824a12.838,12.838,0,0,0,0,1.942c.035.576-.142.795-.756.783-1.857-.036-3.715-.015-5.572-.011-.253,0-.505.029-.834.048a13.891,13.891,0,0,0,1.8,6.268,11.052,11.052,0,0,0,5.072,4.008c-.766.888-1.45,1.715-2.183,2.495a.782.782,0,0,1-.684.03,12.98,12.98,0,0,1-6.609-5.937c-.039-.074-.081-.146-.151-.272" transform="translate(-14065 7046.522)" fill="#0c4da2"/>
      <path id="패스_8" data-name="패스 8" d="M20.64,55.332q-5.314,0-10.629,0c-1.444,0-1.833-.4-1.833-1.86,0-2.355.018-4.709-.014-7.064-.008-.583.191-.745.742-.731q1.814.046,3.629,0c.572-.015.8.146.783.763-.041,1.554.015,3.111-.027,4.666-.016.615.2.753.776.751,5.811-.019,11.623,0,17.434-.026.651,0,.9.162.84.83a13.032,13.032,0,0,0,0,1.943c.038.579-.19.742-.746.738-3.5-.019-7-.009-10.5-.009H20.64" transform="translate(-14069.44 7025.01)" fill="#0c4da2"/>
      <path id="패스_9" data-name="패스 9" d="M49.827,15q0-4.338,0-8.676c0-1.311-.075-1.118,1.161-1.128,1.079-.009,2.16.029,3.237-.014.595-.024.776.168.773.764-.022,4.058-.011,8.115-.011,12.173,0,1.92-.029,3.842.015,5.762.016.675-.21.848-.851.823-1.207-.047-2.417-.036-3.625,0-.536.015-.711-.164-.707-.7.02-3,.01-6,.009-9" transform="translate(-14092.097 7047.038)" fill="#0c4da2"/>
    </g>
  </g>
</svg>
